<?xml version="1.0" encoding="UTF-8"?>
<svg xmlns="http://www.w3.org/2000/svg" viewBox="0 0 254.88 257.17">
  <defs>
    <style>
      .cls-1 {
        isolation: isolate;
      }

      .cls-2 {
        fill: #a05529;
        fill-rule: evenodd;
        mix-blend-mode: multiply;
      }
    </style>
  </defs>
  <g class="cls-1">
    <g id="Layer_2" data-name="Layer 2">
      <g id="Layer_1-2" data-name="Layer 1">
        <path id="T1-hover" class="cls-2" d="M240,37c-2.64.32-5.28.64-7.92.96.24.8.48,1.6.72,2.4,3.62,1.02,7.61,2.63,7.44,7.68-1.92.32-3.84.64-5.76.96.08.64.16,1.28.24,1.92,2.78,1.33,5.86,3.77,6.24,7.68-2.8.4-5.6.8-8.4,1.2v.72l.24.48c4.22,1,8.19,2.99,8.4,8.16-3.05-.07-5.76.34-7.92,1.2l.72.96c2.33.62,5.76,2.04,6.72,4.08.24,1.2.48,2.4.72,3.6-1.8.18-4.95.36-5.76,1.68-.52,3.73,7.48,4.17,5.52,8.88-1.66-.04-4.41.32-5.28,1.2-.21.76-.07.76.24,1.44,2.12.88,3.3,2.4,5.76,3.12.16,1.44.32,2.88.48,4.32-2.65-.08-5.5.28-6.72,1.68l.24.48c4.6,1.38,5.31,3.2,6.96,7.68-2.48.56-4.96,1.12-7.44,1.68v.24c3.99.96,7.12,3.56,7.68,8.16-2.32.48-4.64.96-6.96,1.44l.48.72c3.82,1.08,7.39,2.81,7.2,8.16-2.55-.09-5.27.13-6.72,1.2v.24c3.58,1.14,6.87,3.33,6.72,8.4-2.4.4-4.8.8-7.2,1.2v1.44l.24.72.48.24c4.82-2.73,12.2,2.28,14.88,5.04-.1,17.63,2.5,33.28,2.64,49.68-1.81.19-3.14.67-4.56,0-.32-2.72-.64-5.44-.96-8.16l-.48.48c-10.24,3.93-20.28,8.97-30,13.92-3.28,1.84-6.56,3.68-9.84,5.52-2.16-.16-4.32-.32-6.48-.48-6.99,1.29-16.54,1.54-21.84,4.8-6.09,3.75-5.39,7.94-8.88,13.92-1.26,2.16-3.49,3.39-4.8,5.28-2.04,2.93-2.03,6.49-4.8,8.64-2,1.56-3.57,1.42-6.24,2.64-1.36.96-2.72,1.92-4.08,2.88-3.6.64-7.2,1.28-10.8,1.92-5.12,1.42-12.31,3.45-17.28,4.8-7.04.8-14.08,1.6-21.12,2.4-10.49,1.8-41.12-.86-46.8-5.04-5.75-4.23-11.44-14.87-15.6-21.12-1.75-2.63-8.39-10.17-9.12-12.24.08-2.24.16-4.48.24-6.72-1.05-4.05-9.93-7.04-8.88-11.04.9-6.22,9.62-9.2,13.92-12.24v-2.16c-1.2-.32-2.4-.64-3.6-.96.9-1.07,1.8-1.19,2.16-2.88-.64-.32-1.28-.64-1.92-.96,1.51-2.89-2.21-5.51-2.4-9.84,1.68-.72,3.36-1.44,5.04-2.16-.13-3.21-4.62-2.57-6.72-3.6-.08-1.28-.16-2.56-.24-3.84,2.94-.58,5.41-1.46,4.8-5.04-2.16-.4-4.32-.8-6.48-1.2-.16-.96-.32-1.92-.48-2.88,1.11-1.7,3.47-1.46,4.8-2.88-.16-1.2-.32-2.4-.48-3.6-2-.64-4-1.28-6-1.92.5-1.07-.17-3.33.24-3.6,1.78-.89,3.05-1.11,4.32-2.4v-2.16c-2.08-.48-4.16-.96-6.24-1.44-.08-1.36-.16-2.72-.24-4.08,1.98-.16,4.06-.94,5.04-2.16-.24-.8-.48-1.6-.72-2.4-2-.4-4-.8-6-1.2v-4.08c2.17-.32,3.71-1.21,4.8-2.64-.24-.8-.48-1.6-.72-2.4-2.08-.4-4.16-.8-6.24-1.2-.08-1.36-.16-2.72-.24-4.08,2.19-.18,4.01-1.03,5.04-2.4-.16-.8-.32-1.6-.48-2.4-2.08-.4-4.16-.8-6.24-1.2-.08-1.36-.16-2.72-.24-4.08,1.75-.22,3.6-.85,4.32-2.16.72-.78.72-1.45.48-2.64-1.91-.77-4.14-1.27-6.72-1.44-.28-5.48,1.77-3.82,5.04-6,.08-4-3.01-4.36-6.72-4.32-.08-1.36-.16-2.72-.24-4.08,2.26-.34,3.76-1.33,5.04-2.64-.08-.72-.16-1.44-.24-2.16-1.9-.59-4.02-1.11-6.48-1.44-.08-1.52-.16-3.04-.24-4.56,2.1-.15,3.71-.8,5.04-1.68-.16-1.04-.32-2.08-.48-3.12-2.16-.4-4.32-.8-6.48-1.2-.16-1.36-.32-2.72-.48-4.08,1.84-.56,3.68-1.12,5.52-1.68-.14-4.93-3.03-3.83-6.96-4.8-.08-1.36-.16-2.72-.24-4.08,2.05-.24,4.46-.86,5.52-2.16-.4-1.44-.8-2.88-1.2-4.32-2.08-.32-4.16-.64-6.24-.96-.32-1.35-.66-3.09-.24-4.56,1.92-.13,3.32-.68,4.56-1.44-.24-1.84-.48-3.68-.72-5.52-2.48-.28-5.41-.86-6.48-2.64l.72-.48c1.68-.48,3.36-.96,5.04-1.44-.08-1.92-.16-3.84-.24-5.76-2.88.08-6.56-.37-7.92-1.92h.48c3.5-2.45,8.93-2.26,13.68-3.36,7.12-1.68,14.24-3.36,21.36-5.04v-2.88c7.84-1.84,15.68-3.68,23.52-5.52,6,.64,12,1.28,18,1.92.09,1.56.06,1.79,1.68,1.92,3.44.48,6.88.96,10.32,1.44,3.1-.53,6.79-1.49,10.08-.96,3.62.58,7.22,1.76,11.52,1.92.32,1.92.64,3.84.96,5.76,13.37,2.53,26.2-1.37,40.08-1.92-.24-1.52-.48-3.04-.72-4.56-1.36-.32-2.72-.64-4.08-.96,3.09-.81,6.93-1.48,10.8-.96v1.2c3.68-.56,7.36-1.12,11.04-1.68.69-.55.26-1.36,1.44-1.68,4.48-1.21,7.8,4.5,11.28,1.2-.4-.56-.8-1.12-1.2-1.68v-.24c2.51-.47,6.24-1.5,9.12-.72v.24c-.59,1.18-.76.67-.72,2.16,7.52-.64,15.04-1.28,22.56-1.92,9.6,2.21,19.51,8.07,28.08,12.24l-.72.96c-1.68.24-3.36.48-5.04.72v1.68c.16,1.04.32,2.08.48,3.12,2.46.58,4.28,1.57,5.76,3.12v1.92h-.48c-1.83.69-5.92-.11-7.2,1.2v3.36c3.12.51,6.1,2.4,7.92,4.32v3.6Z"/>
      </g>
    </g>
  </g>
</svg>