<?xml version="1.0" encoding="UTF-8"?>
<svg id="Layer_2" data-name="Layer 2" xmlns="http://www.w3.org/2000/svg" viewBox="0 0 630.09 93.62">
  <defs>
    <style>
      .cls-1 {
        fill: #a0552a;
      }
    </style>
  </defs>
  <g id="Layer_1-2" data-name="Layer 1">
    <path id="T2-17" class="cls-1" d="M96.57,86.97h.07s188.54,2.85,188.54,2.85l14.38-7.78v-12.89l19.8-7.22,26.2,3.21,43.63-16.68h.12s240.16,25.74,240.16,25.74l.61-.3v-13.74l-11.14-1.86-.37-27.48,11.51-3.71L389.86,0l-40.84,17.45-29.59-3.71-19.42,8.17.74,6.31s-10.03,5.94-11.14,6.31-186.76.37-186.76.37c0,0-8.91,4.46-10.77,4.83-1.86.37-91.71-.37-91.71-.37v8.91l13,13.74.37,17.08H0v13.74l.8.8,74.59-.95,21.18-5.7Z"/>
  </g>
</svg>