<?xml version="1.0" encoding="UTF-8"?>
<svg id="Layer_2" data-name="Layer 2" xmlns="http://www.w3.org/2000/svg" viewBox="0 0 631.58 71.17">
  <defs>
    <style>
      .cls-1 {
        fill: #a0552a;
      }
    </style>
  </defs>
  <g id="Layer_1-2" data-name="Layer 1">
    <path id="T2-12" class="cls-1" d="M347.15,12.69h-.1s-26.08-3.21-26.08-3.21l-18.92,6.9v8.78l-15.13,8.19h-.13s-188.67-.85-188.67-.85l-21.09,3.69-73.72.94,10.8,8.26.74,11.51H0s.62,11.38.73,14.26l76.21-.97,21.1-3.69,188.76.84,14.26.02v-14.72l19.85-5.17,26.2-.79,43.62-7.69h.06s240.79,16.12,240.79,16.12v-11.95l-10.77-1.11-.37-18.19,8.97-2.99L390.8,0l-43.65,12.69Z"/>
  </g>
</svg>