<?xml version="1.0" encoding="UTF-8"?>
<svg id="Layer_2" data-name="Layer 2" xmlns="http://www.w3.org/2000/svg" viewBox="0 0 629.72 83.15">
  <defs>
    <style>
      .cls-1 {
        fill: #a0552a;
      }
    </style>
  </defs>
  <g id="Layer_1-2" data-name="Layer 1">
    <polygon id="T2-16" class="cls-1" points="627.45 25.54 388.96 0 345.32 16.69 319.11 13.48 300.19 20.38 300.19 33.16 285.06 41.35 96.33 38.5 75.09 44.19 1.41 45.13 12.62 56.34 13 68.22 0 68.6 0 83.08 .07 83.15 75.02 82.2 96.2 76.49 96.27 76.49 284.81 79.34 299.19 71.56 299.19 58.68 319 51.46 345.2 54.67 388.84 39.98 388.94 39.99 629.72 64.02 629.72 51.52 618.58 50.03 618.58 29.98 627.45 25.54"/>
  </g>
</svg>