<?xml version="1.0" encoding="UTF-8"?>
<svg id="Layer_2" data-name="Layer 2" xmlns="http://www.w3.org/2000/svg" viewBox="0 0 630.46 75.15">
  <defs>
    <style>
      .cls-1 {
        fill: #a0552a;
      }
    </style>
  </defs>
  <g id="Layer_1-2" data-name="Layer 1">
    <polygon id="T2-14" class="cls-1" points="346.06 13.69 345.95 13.67 319.87 10.48 300.95 17.38 300.95 26.16 285.82 34.35 285.69 34.35 97.02 33.5 75.93 37.19 0 38.16 .01 38.72 13.01 49.86 13.75 59.89 .01 60.26 .39 74.74 .92 75.15 75.84 74.2 96.94 70.5 285.56 71.35 299.95 63.57 299.95 54.68 319.75 47.46 345.97 50.67 389.6 37.99 389.69 38 630.46 59.05 628.62 44.29 618.59 44.29 618.96 26.47 629.69 21.97 390.7 0 346.06 13.69"/>
  </g>
</svg>