<?xml version="1.0" encoding="UTF-8"?>
<svg id="Layer_2" data-name="Layer 2" xmlns="http://www.w3.org/2000/svg" viewBox="0 0 630.46 67.14">
  <defs>
    <style>
      .cls-1 {
        fill: #a0552a;
      }
    </style>
  </defs>
  <g id="Layer_1-2" data-name="Layer 1">
    <polygon id="T2-10" class="cls-1" points="346.1 8.67 319.87 9.47 300.94 14.42 300.94 27.37 285.68 27.35 97 26.5 75.92 30.19 2.05 31.14 13.37 39.31 13.74 50.45 .37 50.45 0 66.05 1.69 67.14 75.82 66.2 96.92 62.51 285.68 63.35 299.94 63.37 299.94 51.66 319.72 45.47 345.95 45.68 389.6 36.99 389.67 37 630.46 52.13 630.46 39.69 618.58 41.17 619.32 20.75 630.46 18.15 630.46 16.12 389.67 0 346.1 8.67"/>
  </g>
</svg>