<?xml version="1.0" encoding="UTF-8"?>
<svg id="Layer_2" data-name="Layer 2" xmlns="http://www.w3.org/2000/svg" viewBox="0 0 630.83 76.16">
  <defs>
    <style>
      .cls-1 {
        fill: #a0552a;
      }
    </style>
  </defs>
  <g id="Layer_1-2" data-name="Layer 1">
    <polygon id="T2-15" class="cls-1" points="346.42 14.69 346.31 14.67 320.23 11.48 301.31 18.38 301.31 31.16 286.17 39.35 97.44 36.5 76.21 42.2 2.17 43.14 14.11 55.07 14.85 62.87 0 62.87 .33 76.16 76.19 75.2 97.29 71.5 285.92 72.35 300.31 64.56 300.31 55.68 320.11 48.46 346.32 51.67 390.95 37.98 391.05 37.99 630.83 60.04 630.83 48.02 619.69 45.79 618.58 28.71 630.83 25 630.83 24.02 390.07 0 346.42 14.69"/>
  </g>
</svg>