<?xml version="1.0" encoding="UTF-8"?>
<svg id="Layer_2" data-name="Layer 2" xmlns="http://www.w3.org/2000/svg" viewBox="0 0 630.29 59.16">
  <defs>
    <style>
      .cls-1 {
        fill: #a0552a;
      }
    </style>
  </defs>
  <g id="Layer_1-2" data-name="Layer 1">
    <polygon id="T2-8" class="cls-1" points="345.91 6.68 319.7 6.48 300.77 12.4 300.77 21.37 285.51 21.35 96.84 20.5 75.75 24.2 0 25.16 12.46 32.49 13.2 46.97 .57 46.6 .57 59.16 75.66 58.2 96.8 56.5 285.51 57.35 299.77 57.37 299.77 50.67 319.56 44.47 319.63 44.47 345.83 44.68 389.44 38 389.49 38 630.29 51.15 630.29 37.32 620.27 37.32 619.9 17.27 630.29 14.67 630.29 13.16 389.49 0 345.91 6.68"/>
  </g>
</svg>