<?xml version="1.0" encoding="UTF-8"?>
<svg id="Layer_2" data-name="Layer 2" xmlns="http://www.w3.org/2000/svg" viewBox="0 0 630.46 63.17">
  <defs>
    <style>
      .cls-1 {
        fill: #a0552a;
      }
    </style>
  </defs>
  <g id="Layer_1-2" data-name="Layer 1">
    <polygon id="T2-9" class="cls-1" points="346.05 8.68 319.87 8.47 300.94 14.4 300.94 26.37 285.68 26.35 97 25.5 75.92 29.19 3.2 30.12 13.74 36.96 13.37 49.21 0 49.58 0 63.17 75.82 62.2 96.92 58.51 285.68 59.35 299.94 59.37 299.94 50.67 319.72 44.47 319.8 44.47 346 44.68 389.61 38 389.66 38 630.46 51.15 630.46 38.82 618.95 38.82 618.21 20.25 630.46 17.65 630.46 15.13 389.67 0 346.05 8.68"/>
  </g>
</svg>