<?xml version="1.0" encoding="UTF-8"?>
<svg xmlns="http://www.w3.org/2000/svg" viewBox="0 0 177.6 196.31">
  <defs>
    <style>
      .cls-1 {
        isolation: isolate;
      }

      .cls-2 {
        fill: #a05529;
        fill-rule: evenodd;
        mix-blend-mode: multiply;
      }
    </style>
  </defs>
  <g class="cls-1">
    <g id="Layer_2" data-name="Layer 2">
      <g id="Layer_1-2" data-name="Layer 1">
        <path id="T2-hover" class="cls-2" d="M168,33.41c2.95.11,5.8.92,7.68,2.16v1.92c-1.28.16-2.56.32-3.84.48-.14,2.06-1.16,6.2.24,7.2.96.16,1.92.32,2.88.48.47,4.31,1.97,10.68,0,14.4-1.56.09-3.06.4-4.08.96,0,3.98,1.87,5.6,1.68,7.92.9-.54,1.04-.84,1.92-.24l.72.48h-.48c-.99.46-2.37.51-3.12,1.2.08,1.2.16,2.4.24,3.6,2.36.98,4.18,2.58,2.88,5.76-1.36-.08-2.72-.16-4.08-.24.08,1.2.16,2.4.24,3.6,1.49.19,2.69.64,3.36,1.68.69,1.09.74,2.59.24,3.6-1.2.16-2.4.32-3.6.48v2.64l.24.24c.85,1.11,2.37,1.18,3.12,2.4.47,1.02.49,3.11.48,3.12-1.2.24-2.4.48-3.6.72.08,1.12.16,2.24.24,3.36,1.57.64,2.75.98,3.36,2.64.08.88.16,1.76.24,2.64-1.68.02-2.8.38-3.84.96.24,1.2.48,2.4.72,3.6,1.32.24,2.3.31,2.64,1.68.16.96.32,1.92.48,2.88-1.57.05-2.63.39-3.6.96v3.12c1.45.31,2.89.8,3.36,2.16.35,1.11.19,2.27-.24,3.12-1.04.16-2.08.32-3.12.48v.24c.84,2.89,1.77,3.54,2.88,5.52.16.88.32,1.76.48,2.64l-.72.24c-1.2.24-2.4.48-3.6.72.69.76.83,2,.96,3.36,1.04.32,2.08.64,3.12.96.08,1.2.16,2.4.24,3.6-1.84.15-3.5.24-3.6,2.4.08.8.16,1.6.24,2.4,1.51.18,2.68.6,3.12,1.92.31,1.04.17,1.84-.24,2.64-1.12.32-2.24.64-3.36.96-.01,1.11-.23,3.05.24,3.6,1.12.4,2.24.8,3.36,1.2v3.84c-1.57.05-2.63.39-3.6.96.08.96.16,1.92.24,2.88,1.04.48,2.08.96,3.12,1.44.08,1.2.16,2.4.24,3.6-2.06,0-3.54.45-4.8,1.2.29,3.17,6.05,4.31,7.92,6.24-.07,1.34-.24,1.4-.72,2.16-4.68,1.44-11.3,3.02-16.32,3.84-1.36-.16-2.72-.32-4.08-.48-.28.19-5.04,2.88-5.04,2.88,0,0-.78-.5-1.2-.48-3.89.19-10.83,1.67-12.24,4.56-2.17-.82-2.92.16-5.04.48v-.24c.27-.68.21-.35.24-.96l-.48-.24c-4.4,1.1-8.73,2.77-13.68,1.92-1.66,2.59-4.82,1.65-8.4,2.4-2.81.59-6.7,3.02-10.32,2.16-1.84-.96-3.68-1.92-5.52-2.88-2.37-.87-3.58,1.16-6,.48-3.85-1.09-2.67-2.34-8.16-1.2-.16-3.92-.32-7.84-.48-11.76-1.28-.15-1.86-.29-2.4-1.2-1.22-2.21-.49-5.66-.24-8.4,1.41.03,2.14-.02,2.64-.96-2.39-.68-16.88-6.96-17.76-8.4-.67-.96-.77-2.33-.72-4.08h-1.92c-.16-3.12-.32-6.24-.48-9.36-1.85-.4-3.99-1.16-4.8-2.64-.38-.57-.44-.87-.48-1.92-14.64.24-29.28.48-43.92.72-.08-.72-.16-1.44-.24-2.16l-.24.48-.72.96h-.24c.32-.72.64-1.44.96-2.16-.85.57-.97.82-2.4.96v-3.84c.88-.24,1.76-.48,2.64-.72-.39-1.88-.18-3.58-.96-4.08-.51,1.1-.77,1.21-2.4,1.2.8-1.92,2.33-1.39,2.64-4.08-1.61-2.62-1.25-13.89-.96-18.72l-1.2-.72c.52-1.05,1.3-2.95.72-4.32l-.24,1.2h-.24c.44-3.84-.75-6.3-.24-10.32-2.32.4-4.64.8-6.96,1.2.08-.88.16-1.76.24-2.64,2.41-.27,4.55-1.13,6.96-.72v-1.92h-1.2c.24-3.04.48-6.08.72-9.12h-1.2c.29-7.09.36-11.37.48-18.48-.87-.15-.73-.1-1.2-.48.16-2.32.32-4.64.48-6.96-.32-1.84-1.71-3.6-1.2-6,.22-1.05,2.06-4.54.96-6.48-.46-.81-1.31-1.32-.96-3.36.32-1.52.64-3.04.96-4.56-.08-1.82-1.09-2.86-1.68-3.84.24-2.8.48-5.6.72-8.4-.22-1.44-1.31-2.95-1.44-3.6,1.28-4,2.56-8,3.84-12,6.73-.39,13.6-.93,19.68-1.68,1.44.4,2.88.8,4.32,1.2,2.88-1.42,11.92-1.97,13.92-1.2,1.81.7,5.73-1.13,7.2.48l.24,1.2h21.12c.16,1.04.32,2.08.48,3.12h6.72v-7.68c2.75-1.03,7.08-1.74,9.12-3.6,5.91,4.28,13.25-3.35,18.96-2.64,18.56,1.76,37.12,3.52,55.68,5.28l-.24.48c-1.86.2-5.55.92-6.24,2.4,3.13.02,2.66,2.47,2.4,5.52,1.28.16,2.56.32,3.84.48v1.44l-.72.48c-1.58.83-2.64.61-3.12,2.64,2.16.56,4.32,1.12,6.48,1.68,0,1.33,0,1.6.72,2.16,2.09,1.52,5.95,1.5,8.64,2.4l-.48.72c-1.77.37-5.88.39-7.2,1.44v6.24Z"/>
      </g>
    </g>
  </g>
</svg>