<?xml version="1.0" encoding="UTF-8"?>
<svg xmlns="http://www.w3.org/2000/svg" viewBox="0 0 174 165.76">
  <defs>
    <style>
      .cls-1 {
        isolation: isolate;
      }

      .cls-2 {
        fill: #a05529;
        fill-rule: evenodd;
        mix-blend-mode: multiply;
      }
    </style>
  </defs>
  <g class="cls-1">
    <g id="Layer_2" data-name="Layer 2">
      <g id="Layer_1-2" data-name="Layer 1">
        <path id="T3-hover" class="cls-2" d="M173.76,15.33c-2.68.81-5.3,3.29-4.08,7.2,1.28.16,2.56.32,3.84.48v1.44c-2.7,1.37-4.23,2.66-5.28,5.76h.48c.96.24,1.92.48,2.88.72.14,1.51.29,2.5-.24,3.6-1.52,1.12-3.04,2.24-4.56,3.36h.48c1.28.4,2.56.8,3.84,1.2-.08.96-.16,1.92-.24,2.88-1.56,1.49-3.7,1.83-4.32,4.32,1.65-.04,2.42.2,3.36.72-.08.96-.16,1.92-.24,2.88-1.66,1.63-3.86,2.43-5.28,4.32,1.99-.08,3.42.1,4.56.72-.08.88-.16,1.76-.24,2.64-1.24,1.4-2.86,1.88-3.6,3.84,1.18.27,1.87.5,2.4,1.44v2.88c-1.44,1.2-2.88,2.4-4.32,3.6v2.16c1.04-.48,2.08-.96,3.12-1.44.64,4.24-1.66,4.56-3.6,6.72h.48c.75.68,1.82.8,2.4,1.68.46.99.14,2.15-.24,2.88-1.67.66-2.37,1.78-3.12,3.36,1.02.19,1.63.27,2.16.96.44.62.64,1.55.24,2.4-1.2,1.52-2.4,3.04-3.6,4.56v.24h2.16c-.56.8-1.12,1.6-1.68,2.4.8.08,1.6.16,2.4.24v.24c-1.44,1.52-2.88,3.04-4.32,4.56,1.12.32,2.24.64,3.36.96-.17,3.78-2.84,4.02-4.32,6.48.96.24,1.92.48,2.88.72v2.88c-1.04,1.2-2.08,2.4-3.12,3.6v.72c.74.48,1.46.88,1.92,1.68.08.64.16,1.28.24,1.92-.88.96-1.76,1.92-2.64,2.88,1.15,1.7.62,2.97,1.44,4.8-1.19,1.47-2.48,2.19-3.36,4.08,1.3.13,1.65.29,2.16,1.2.08.8.16,1.6.24,2.4-2.5,1.81-5.23,4.13-5.28,8.4,1.2.08,2.4.16,3.6.24v.24l-1.92,1.92c-1.23,2.71-4.35,6.03-6.96,7.44-.18-.29.09-.29-.24-.24-3.22,3.14-5.28,9.16-10.08,10.56-8.22,2.39-14.06-4.21-22.8-2.88-10.72,1.64-22.15-.18-32.16,2.64-2.75.78-5.44,3.6-9.36,2.64v-3.84h-3.12v-27.84c-17.25-4.66-32.07-11.02-49.68-15.12-.16-1.76-.32-3.52-.48-5.28-.83.53-1.28.82-2.64.96-.56-.64-1.12-1.28-1.68-1.92-2.07,1.02-6.29,1.88-7.92,0,.48.16.96.32,1.44.48-1.6-1.39-2.59-.73-4.32-.96-.06-4.45.2-8.56.96-12.24.56-.08,1.12-.16,1.68-.24v-1.2c-1.28-.15-1.86-.29-2.4-1.2v-2.4c1.27-.15,2.05-.37,2.64-1.2.55-.83.42-1.49.24-2.64-1.73-.23-2.42-.73-3.36-1.68.16-.88.32-1.76.48-2.64.8-.08,1.6-.16,2.4-.24.32-1.39.51-1.63.48-3.12-.96-.48-1.92-.96-2.88-1.44.29-.99-.01-1.02.72-1.68.42-1.07.53-1.02,1.2-1.2.57.11.3,0,.96.48-.24-1.68-.48-3.36-.72-5.04-.72-.4-1.44-.8-2.16-1.2v-1.68c.96-.32,1.92-.64,2.88-.96v-2.88c-1.35-.51-2.88-.63-3.12-2.4.08-.56.16-1.12.24-1.68.96-.24,1.92-.48,2.88-.72-.08-1.04-.16-2.08-.24-3.12-.88-.24-1.76-.48-2.64-.72-.16-1.04-.32-2.08-.48-3.12,1.04-.16,2.08-.32,3.12-.48.61-3.2-.45-3.28-2.88-4.56-.08-1.04-.16-2.08-.24-3.12,1.63-.03,2.39-.38,3.36-.96-.08-.96-.16-1.92-.24-2.88-2.04-.08-2.61-.63-3.6-1.68v-1.68c1.2-.32,2.4-.64,3.6-.96v-3.6c-2.1-.14-3.04-.72-3.84-2.16.96-1.25,2.23-1.54,4.08-1.92v-3.36c-2.34-.91-4.75-1.92-7.92-2.4v-1.2l.24-.48c2.94.03,8.07-.38,9.36-2.16.5-.76.53-1.97.48-3.36-2.59-1.16-6.86-1.29-9.6-2.64l.24-.48c8.24-1.12,16.48-2.24,24.72-3.36,2.99-.46,10.25,1.04,12.24-.72.16-2.08.32-4.16.48-6.24,2.14.03,3.51-.41,4.56-1.44-.86-.69-.98-1-.96-2.64,12.32-.08,24.64-.16,36.96-.24,4.29-.1,10.2-2.01,15.12-.72,2,1.28,4,2.56,6,3.84,2.96.24,5.92.48,8.88.72,2.48,1.85,1.81,5.48,1.68,9.6,1.73.79,4.38.78,6.72,1.2.01,1.43.18,1.66.72,2.4h4.08c.49-2.6,3.35-2.59,6.48-2.4-.42-1.87-.07-3.14.72-4.32,6.54-1.14,14.47-.2,20.88,0v1.2c8,.56,16,1.12,24,1.68l-.24.96ZM37.44,3.09l.48-.96.96,1.2-.48.48-.96-.72Z"/>
      </g>
    </g>
  </g>
</svg>